<svg width="20" height="20" viewBox="0 0 20 20" fill="none" xmlns="http://www.w3.org/2000/svg">
<g id="vuesax/bold/arrange-circle">
<g id="vuesax/bold/arrange-circle_2">
<g id="arrange-circle">
<path id="Vector" d="M10.0003 1.66675C5.40033 1.66675 1.66699 5.40008 1.66699 10.0001C1.66699 14.6001 5.40033 18.3334 10.0003 18.3334C14.6003 18.3334 18.3337 14.6001 18.3337 10.0001C18.3337 5.40008 14.6003 1.66675 10.0003 1.66675ZM9.10866 14.2917C9.10866 14.3751 9.09199 14.4501 9.05866 14.5334C8.99199 14.6834 8.87533 14.8084 8.71699 14.8751C8.64199 14.9084 8.55866 14.9251 8.47533 14.9251C8.39199 14.9251 8.31699 14.9084 8.23366 14.8751C8.15866 14.8417 8.09199 14.8001 8.03366 14.7417L5.50033 12.2084C5.25866 11.9667 5.25866 11.5667 5.50033 11.3251C5.74199 11.0834 6.14199 11.0834 6.38366 11.3251L7.85033 12.7917V5.70842C7.85033 5.36675 8.13366 5.08341 8.47533 5.08341C8.81699 5.08341 9.10033 5.36675 9.10033 5.70842V14.2917H9.10866ZM14.492 8.68341C14.367 8.80841 14.2087 8.86675 14.0503 8.86675C13.892 8.86675 13.7337 8.80841 13.6087 8.68341L12.142 7.21675V14.3001C12.142 14.6417 11.8587 14.9251 11.517 14.9251C11.1753 14.9251 10.892 14.6417 10.892 14.3001V5.70842C10.892 5.62508 10.9087 5.55008 10.942 5.46675C11.0087 5.31675 11.1253 5.19175 11.2837 5.12508C11.4337 5.05841 11.6087 5.05841 11.7587 5.12508C11.8337 5.15841 11.9003 5.20008 11.9587 5.25841L14.492 7.79175C14.7337 8.04175 14.7337 8.43341 14.492 8.68341Z" fill="#48E98A"/>
</g>
</g>
</g>
</svg>
